# xmcd
#
# Track frame offsets: 
#        150
#        44342
#        78567
#        114207
#        179357
#        208717
#        257815
#        284470
#
# Disc length: 4169 seconds
#
# Revision: 2
# Processed by: cddbd v1.5PL3 Copyright (c) Steve Scherf et al.
# Submitted via: ExactAudioCopy v0.95a3
#
DISCID=6f104708
DTITLE=Dave Brubeck - Late Night Brubeck, Live from the Blue Note
DYEAR=1900
DGENRE=
TTITLE0=These Foolish Things
TTITLE1=Here's that Rainy Day
TTITLE2=Theme for June
TTITLE3=Medley
TTITLE4=Who will take care of me?
TTITLE5=Koto song
TTITLE6=So Wistfully sad
TTITLE7=Mean to me
EXTD=Dave Brubeck - Paino\nBobby Militello - Alto Saxophone\nJack Six 
EXTD=Bass\nRandy Jones - Drums
EXTT0=
EXTT1=
EXTT2=
EXTT3=
EXTT4=
EXTT5=
EXTT6=
EXTT7=
PLAYORDER=
